# xmcd CD database file
#
# Track frame offsets:
#	150
#	13515
#	36550
#	104357
#	125212
#	151567
#	210767
#	226521
#	241667
#
# Disc length: 3919 seconds
#
# Revision: 0
# Processed by: cddbd v1.4PL0 Copyright (c) Steve Scherf et al.
# Submitted via: CDex 1.50
#
DISCID=5f0f4d09
DTITLE=Stevie Ray Vaughan - Live in Japan [CD1]
DYEAR=1900
DGENRE=Blues
TTITLE0=Scuttle Buttin'
TTITLE1=Say What
TTITLE2=Voodoo Child-Instr.Improvisation
TTITLE3=Cold Shot
TTITLE4=Couldn't Stand The Weather
TTITLE5=Tin Pan Alley- Dirty Pool
TTITLE6=Mary Had A Little Lamb
TTITLE7=Love Struck Baby
TTITLE8=Texas Flood
EXTD=
EXTT0=
EXTT1=
EXTT2=
EXTT3=
EXTT4=
EXTT5=
EXTT6=
EXTT7=
EXTT8=
PLAYORDER=
